<?xml version="1.0" encoding="UTF-8" standalone="no"?>
<svg
   xmlns:dc="http://purl.org/dc/elements/1.1/"
   xmlns:cc="http://creativecommons.org/ns#"
   xmlns:rdf="http://www.w3.org/1999/02/22-rdf-syntax-ns#"
   xmlns:svg="http://www.w3.org/2000/svg"
   xmlns="http://www.w3.org/2000/svg"
   xmlns:xlink="http://www.w3.org/1999/xlink"
   xmlns:sodipodi="http://sodipodi.sourceforge.net/DTD/sodipodi-0.dtd"
   xmlns:inkscape="http://www.inkscape.org/namespaces/inkscape"
   height="700"
   width="700"
   version="1.1"
   viewBox="-2100 -1470 4083.3331 4083.333"
   id="svg2008"
   sodipodi:docname="bandeira-brasil-flag.svg"
   inkscape:export-filename="C:\Users\suitedoalex\sites\brazil-flag-bandeira.png"
   inkscape:export-xdpi="561.73712"
   inkscape:export-ydpi="561.73712"
   inkscape:version="0.92.4 (5da689c313, 2019-01-14)">
  <metadata
     id="metadata90">
    <rdf:RDF>
      <cc:Work
         rdf:about="">
        <dc:format>image/svg+xml</dc:format>
        <dc:type
           rdf:resource="http://purl.org/dc/dcmitype/StillImage" />
        <dc:title></dc:title>
      </cc:Work>
    </rdf:RDF>
  </metadata>
  <sodipodi:namedview
     pagecolor="#ffffff"
     bordercolor="#666666"
     borderopacity="1"
     objecttolerance="10"
     gridtolerance="10"
     guidetolerance="10"
     inkscape:pageopacity="0"
     inkscape:pageshadow="2"
     inkscape:window-width="1600"
     inkscape:window-height="837"
     id="namedview88"
     showgrid="false"
     inkscape:zoom="0.59811321"
     inkscape:cx="-212.33574"
     inkscape:cy="427.48709"
     inkscape:window-x="-8"
     inkscape:window-y="-8"
     inkscape:window-maximized="1"
     inkscape:current-layer="g2461" />
  <defs
     id="defs1936">
    <g
       id="G">
      <clipPath
         id="gcut">
        <path
           d="m -31.5,0 v -70 h 63 V 0 Z M 0,-47 v 12 h 31.5 v -12 z"
           id="path1889"
           inkscape:connector-curvature="0" />
      </clipPath>
      <use
         xlink:href="#O"
         clip-path="url(#gcut)"
         id="use1892"
         x="0"
         y="0"
         width="100%"
         height="100%" />
      <path
         id="rect1894"
         d="m 5,-35 h 26.5 v 10 H 5 Z"
         inkscape:connector-curvature="0" />
      <path
         id="rect1896"
         d="m 21.5,-35 h 10 V 0 h -10 z"
         inkscape:connector-curvature="0" />
    </g>
    <g
       id="R">
      <use
         xlink:href="#P"
         id="use1902"
         x="0"
         y="0"
         width="100%"
         height="100%" />
      <path
         d="m 28,0 c 0,-10 0,-32 -15,-32 H -6 c 22,0 22,22 22,32"
         id="path1904"
         inkscape:connector-curvature="0" />
    </g>
    <g
       id="star"
       style="fill:#ffffff">
      <g
         id="c">
        <path
           id="t"
           transform="rotate(18,0,-1)"
           d="M 0,-1 V 0 H 0.5"
           inkscape:connector-curvature="0" />
        <use
           xlink:href="#t"
           transform="scale(-1,1)"
           id="use1909"
           x="0"
           y="0"
           width="100%"
           height="100%" />
      </g>
      <use
         xlink:href="#c"
         transform="rotate(72)"
         id="use1912"
         x="0"
         y="0"
         width="100%"
         height="100%" />
      <use
         xlink:href="#c"
         transform="rotate(-72)"
         id="use1914"
         x="0"
         y="0"
         width="100%"
         height="100%" />
      <use
         xlink:href="#c"
         transform="rotate(144)"
         id="use1916"
         x="0"
         y="0"
         width="100%"
         height="100%" />
      <use
         xlink:href="#c"
         transform="rotate(-144)"
         id="use1918"
         x="0"
         y="0"
         width="100%"
         height="100%" />
    </g>
    <g
       id="star1">
      <use
         xlink:href="#star"
         transform="scale(31.5)"
         id="use1921"
         x="0"
         y="0"
         width="100%"
         height="100%" />
    </g>
    <g
       id="star2">
      <use
         xlink:href="#star"
         transform="scale(26.25)"
         id="use1924"
         x="0"
         y="0"
         width="100%"
         height="100%" />
    </g>
    <g
       id="star3">
      <use
         xlink:href="#star"
         transform="scale(21)"
         id="use1927"
         x="0"
         y="0"
         width="100%"
         height="100%" />
    </g>
    <g
       id="star4">
      <use
         xlink:href="#star"
         transform="scale(15)"
         id="use1930"
         x="0"
         y="0"
         width="100%"
         height="100%" />
    </g>
    <g
       id="star5">
      <use
         xlink:href="#star"
         transform="scale(10.5)"
         id="use1933"
         x="0"
         y="0"
         width="100%"
         height="100%" />
    </g>
    <path
       id="D"
       d="m -31.5,0 h 33 a 30,30 0 0 0 30,-30 v -10 a 30,30 0 0 0 -30,-30 h -33 z m 13,-13 h 19 a 19,19 0 0 0 19,-19 v -6 a 19,19 0 0 0 -19,-19 h -19 z"
       inkscape:connector-curvature="0"
       style="fill-rule:evenodd" />
    <path
       id="E"
       transform="translate(-31.5)"
       d="M 0,0 H 63 V -13 H 12 V -31 H 52 V -43 H 12 V -57 H 60 V -70 H 0 Z"
       inkscape:connector-curvature="0" />
    <path
       id="e"
       d="m -26.25,0 h 52.5 v -12 h -40.5 v -16 h 33 v -12 h -33 V -51 H 25 v -12 h -51.25 z"
       inkscape:connector-curvature="0" />
    <path
       id="M"
       d="m -31.5,0 h 12 v -48 l 14,48 h 11 l 14,-48 V 0 h 12 V -70 H 14 L 0,-22 -14,-70 h -17.5 z"
       inkscape:connector-curvature="0" />
    <path
       id="O"
       d="M 0,0 A 31.5,35 0 0 0 0,-70 31.5,35 0 0 0 0,0 m 0,-13 a 18.5,22 0 0 0 0,-44 18.5,22 0 0 0 0,44"
       inkscape:connector-curvature="0"
       style="fill-rule:evenodd" />
    <path
       id="P"
       d="m -31.5,0 h 13 v -26 h 28 a 22,22 0 0 0 0,-44 h -40 z m 13,-39 h 27 a 9,9 0 0 0 0,-18 h -27 z"
       inkscape:connector-curvature="0"
       style="fill-rule:evenodd" />
    <path
       id="S"
       d="m -15.75,-22 c 0,7 6.75,10.5 16.75,10.5 10,0 14.74,-3.25 14.75,-7.75 C 15.75,-33.5 -31,-24.5 -30.75,-49.5 -30.5,-71 -6,-70 3,-70 c 9,0 26,4 25.75,21.25 H 13.5 c 0,-7.5 -7,-10.25 -15,-10.25 -7.75,0 -13.25,1.25 -13.25,8.5 -0.25,11.75 46.25,4 46.25,28.75 C 31.5,-3.5 13.5,0 0,0 -11.5,0 -31.55,-4.5 -31.5,-22 Z"
       inkscape:connector-curvature="0" />
  </defs>
  <clipPath
     id="band">
    <circle
       r="735"
       id="circle1944"
       cx="0"
       cy="0" />
  </clipPath>
  <g
     id="g2461"
     transform="matrix(1.4722222,0,0,1.4722222,991.66662,449.16672)">
    <rect
       style="fill:#009b3a;fill-opacity:1;fill-rule:evenodd;stroke-width:2.0275445"
       id="rect897"
       width="2149.1973"
       height="1504.4381"
       x="-1787.8063"
       y="-669.01166"
       rx="37.288918"
       ry="37.288918"
       inkscape:export-filename="C:\Users\suitedoalex\sites\brazil-flag-bandeira-4.png"
       inkscape:export-xdpi="70.794304"
       inkscape:export-ydpi="70.794304" />
    <path
       d="M -1605.1244,83.207405 -713.20771,652.74466 178.70911,83.207405 -713.20771,-486.32981 Z"
       id="path1940"
       inkscape:connector-curvature="0"
       style="fill:#fedf00;stroke-width:0.51171362"
       inkscape:export-filename="C:\Users\suitedoalex\sites\brazil-flag-bandeira-4.png"
       inkscape:export-xdpi="70.794304"
       inkscape:export-ydpi="70.794304" />
    <circle
       r="376.1095"
       id="circle1942"
       cx="-713.20782"
       cy="83.207382"
       style="fill:#002776;stroke-width:0.51171362"
       inkscape:export-filename="C:\Users\suitedoalex\sites\brazil-flag-bandeira-4.png"
       inkscape:export-xdpi="70.794304"
       inkscape:export-ydpi="70.794304" />
    <path
       d="m -2205,1470 a 1785,1785 0 0 1 3570,0 h -105 a 1680,1680 0 1 0 -3360,0 z"
       clip-path="url(#band)"
       id="path1947"
       inkscape:connector-curvature="0"
       style="fill:#ffffff"
       transform="matrix(0.5117136,0,0,0.5117136,-713.20771,83.207405)"
       inkscape:export-filename="C:\Users\suitedoalex\sites\brazil-flag-bandeira-4.png"
       inkscape:export-xdpi="70.794304"
       inkscape:export-ydpi="70.794304" />
    <g
       transform="matrix(0.5117136,0,0,0.5117136,-928.12746,835.42641)"
       id="g1979"
       style="fill:#009b3a"
       inkscape:export-filename="C:\Users\suitedoalex\sites\brazil-flag-bandeira-4.png"
       inkscape:export-xdpi="70.794304"
       inkscape:export-ydpi="70.794304">
      <use
         y="-1697.5"
         xlink:href="#O"
         transform="rotate(-7)"
         id="use1949"
         x="0"
         width="100%"
         height="100%" />
      <use
         y="-1697.5"
         xlink:href="#R"
         transform="rotate(-4)"
         id="use1951"
         x="0"
         width="100%"
         height="100%" />
      <use
         y="-1697.5"
         xlink:href="#D"
         transform="rotate(-1)"
         id="use1953"
         x="0"
         width="100%"
         height="100%" />
      <use
         y="-1697.5"
         xlink:href="#E"
         transform="rotate(2)"
         id="use1955"
         x="0"
         width="100%"
         height="100%" />
      <use
         y="-1697.5"
         xlink:href="#M"
         transform="rotate(5)"
         id="use1957"
         x="0"
         width="100%"
         height="100%" />
      <use
         y="-1697.5"
         xlink:href="#e"
         transform="rotate(9.75)"
         id="use1959"
         x="0"
         width="100%"
         height="100%" />
      <use
         y="-1697.5"
         xlink:href="#P"
         transform="rotate(14.5)"
         id="use1961"
         x="0"
         width="100%"
         height="100%" />
      <use
         y="-1697.5"
         xlink:href="#R"
         transform="rotate(17.5)"
         id="use1963"
         x="0"
         width="100%"
         height="100%" />
      <use
         y="-1697.5"
         xlink:href="#O"
         transform="rotate(20.5)"
         id="use1965"
         x="0"
         width="100%"
         height="100%" />
      <use
         y="-1697.5"
         xlink:href="#G"
         transform="rotate(23.5)"
         id="use1967"
         x="0"
         width="100%"
         height="100%" />
      <use
         y="-1697.5"
         xlink:href="#R"
         transform="rotate(26.5)"
         id="use1969"
         x="0"
         width="100%"
         height="100%" />
      <use
         y="-1697.5"
         xlink:href="#E"
         transform="rotate(29.5)"
         id="use1971"
         x="0"
         width="100%"
         height="100%" />
      <use
         y="-1697.5"
         xlink:href="#S"
         transform="rotate(32.5)"
         id="use1973"
         x="0"
         width="100%"
         height="100%" />
      <use
         y="-1697.5"
         xlink:href="#S"
         transform="rotate(35.5)"
         id="use1975"
         x="0"
         width="100%"
         height="100%" />
      <use
         y="-1697.5"
         xlink:href="#O"
         transform="rotate(38.5)"
         id="use1977"
         x="0"
         width="100%"
         height="100%" />
    </g>
    <use
       id="αCMi"
       y="-132"
       x="-600"
       xlink:href="#star1"
       width="100%"
       height="100%"
       transform="matrix(0.5117136,0,0,0.5117136,-713.20771,83.207405)"
       inkscape:export-filename="C:\Users\suitedoalex\sites\brazil-flag-bandeira-4.png"
       inkscape:export-xdpi="70.794304"
       inkscape:export-ydpi="70.794304" />
    <use
       id="αCMa"
       y="177"
       x="-535"
       xlink:href="#star1"
       width="100%"
       height="100%"
       transform="matrix(0.5117136,0,0,0.5117136,-713.20771,83.207405)"
       inkscape:export-filename="C:\Users\suitedoalex\sites\brazil-flag-bandeira-4.png"
       inkscape:export-xdpi="70.794304"
       inkscape:export-ydpi="70.794304" />
    <use
       id="βCMa"
       y="243"
       x="-625"
       xlink:href="#star2"
       width="100%"
       height="100%"
       transform="matrix(0.5117136,0,0,0.5117136,-713.20771,83.207405)"
       inkscape:export-filename="C:\Users\suitedoalex\sites\brazil-flag-bandeira-4.png"
       inkscape:export-xdpi="70.794304"
       inkscape:export-ydpi="70.794304" />
    <use
       id="γCMa"
       y="132"
       x="-463"
       xlink:href="#star4"
       width="100%"
       height="100%"
       transform="matrix(0.5117136,0,0,0.5117136,-713.20771,83.207405)"
       inkscape:export-filename="C:\Users\suitedoalex\sites\brazil-flag-bandeira-4.png"
       inkscape:export-xdpi="70.794304"
       inkscape:export-ydpi="70.794304" />
    <use
       id="δCMa"
       y="250"
       x="-382"
       xlink:href="#star2"
       width="100%"
       height="100%"
       transform="matrix(0.5117136,0,0,0.5117136,-713.20771,83.207405)"
       inkscape:export-filename="C:\Users\suitedoalex\sites\brazil-flag-bandeira-4.png"
       inkscape:export-xdpi="70.794304"
       inkscape:export-ydpi="70.794304" />
    <use
       id="εCMa"
       y="323"
       x="-404"
       xlink:href="#star3"
       width="100%"
       height="100%"
       transform="matrix(0.5117136,0,0,0.5117136,-713.20771,83.207405)"
       inkscape:export-filename="C:\Users\suitedoalex\sites\brazil-flag-bandeira-4.png"
       inkscape:export-xdpi="70.794304"
       inkscape:export-ydpi="70.794304" />
    <use
       id="αVir"
       y="-228"
       x="228"
       xlink:href="#star1"
       width="100%"
       height="100%"
       transform="matrix(0.5117136,0,0,0.5117136,-713.20771,83.207405)"
       inkscape:export-filename="C:\Users\suitedoalex\sites\brazil-flag-bandeira-4.png"
       inkscape:export-xdpi="70.794304"
       inkscape:export-ydpi="70.794304" />
    <use
       id="αSco"
       y="258"
       x="515"
       xlink:href="#star1"
       width="100%"
       height="100%"
       transform="matrix(0.5117136,0,0,0.5117136,-713.20771,83.207405)"
       inkscape:export-filename="C:\Users\suitedoalex\sites\brazil-flag-bandeira-4.png"
       inkscape:export-xdpi="70.794304"
       inkscape:export-ydpi="70.794304" />
    <use
       id="βSco"
       y="265"
       x="617"
       xlink:href="#star3"
       width="100%"
       height="100%"
       transform="matrix(0.5117136,0,0,0.5117136,-713.20771,83.207405)"
       inkscape:export-filename="C:\Users\suitedoalex\sites\brazil-flag-bandeira-4.png"
       inkscape:export-xdpi="70.794304"
       inkscape:export-ydpi="70.794304" />
    <use
       id="εSco"
       y="323"
       x="545"
       xlink:href="#star2"
       width="100%"
       height="100%"
       transform="matrix(0.5117136,0,0,0.5117136,-713.20771,83.207405)"
       inkscape:export-filename="C:\Users\suitedoalex\sites\brazil-flag-bandeira-4.png"
       inkscape:export-xdpi="70.794304"
       inkscape:export-ydpi="70.794304" />
    <use
       id="θSco"
       y="477"
       x="368"
       xlink:href="#star2"
       width="100%"
       height="100%"
       transform="matrix(0.5117136,0,0,0.5117136,-713.20771,83.207405)"
       inkscape:export-filename="C:\Users\suitedoalex\sites\brazil-flag-bandeira-4.png"
       inkscape:export-xdpi="70.794304"
       inkscape:export-ydpi="70.794304" />
    <use
       id="ιSco"
       y="551"
       x="367"
       xlink:href="#star3"
       width="100%"
       height="100%"
       transform="matrix(0.5117136,0,0,0.5117136,-713.20771,83.207405)"
       inkscape:export-filename="C:\Users\suitedoalex\sites\brazil-flag-bandeira-4.png"
       inkscape:export-xdpi="70.794304"
       inkscape:export-ydpi="70.794304" />
    <use
       id="κSco"
       y="419"
       x="441"
       xlink:href="#star3"
       width="100%"
       height="100%"
       transform="matrix(0.5117136,0,0,0.5117136,-713.20771,83.207405)"
       inkscape:export-filename="C:\Users\suitedoalex\sites\brazil-flag-bandeira-4.png"
       inkscape:export-xdpi="70.794304"
       inkscape:export-ydpi="70.794304" />
    <use
       id="λSco"
       y="382"
       x="500"
       xlink:href="#star2"
       width="100%"
       height="100%"
       transform="matrix(0.5117136,0,0,0.5117136,-713.20771,83.207405)"
       inkscape:export-filename="C:\Users\suitedoalex\sites\brazil-flag-bandeira-4.png"
       inkscape:export-xdpi="70.794304"
       inkscape:export-ydpi="70.794304" />
    <use
       id="μSco"
       y="405"
       x="365"
       xlink:href="#star3"
       width="100%"
       height="100%"
       transform="matrix(0.5117136,0,0,0.5117136,-713.20771,83.207405)"
       inkscape:export-filename="C:\Users\suitedoalex\sites\brazil-flag-bandeira-4.png"
       inkscape:export-xdpi="70.794304"
       inkscape:export-ydpi="70.794304" />
    <use
       id="αHya"
       y="30"
       x="-280"
       xlink:href="#star2"
       width="100%"
       height="100%"
       transform="matrix(0.5117136,0,0,0.5117136,-713.20771,83.207405)"
       inkscape:export-filename="C:\Users\suitedoalex\sites\brazil-flag-bandeira-4.png"
       inkscape:export-xdpi="70.794304"
       inkscape:export-ydpi="70.794304" />
    <use
       id="γHya"
       y="-37"
       x="200"
       xlink:href="#star3"
       width="100%"
       height="100%"
       transform="matrix(0.5117136,0,0,0.5117136,-713.20771,83.207405)"
       inkscape:export-filename="C:\Users\suitedoalex\sites\brazil-flag-bandeira-4.png"
       inkscape:export-xdpi="70.794304"
       inkscape:export-ydpi="70.794304" />
    <use
       id="αCru"
       y="330"
       xlink:href="#star1"
       x="0"
       width="100%"
       height="100%"
       transform="matrix(0.5117136,0,0,0.5117136,-713.20771,83.207405)"
       inkscape:export-filename="C:\Users\suitedoalex\sites\brazil-flag-bandeira-4.png"
       inkscape:export-xdpi="70.794304"
       inkscape:export-ydpi="70.794304" />
    <use
       id="βCru"
       y="184"
       x="85"
       xlink:href="#star2"
       width="100%"
       height="100%"
       transform="matrix(0.5117136,0,0,0.5117136,-713.20771,83.207405)"
       inkscape:export-filename="C:\Users\suitedoalex\sites\brazil-flag-bandeira-4.png"
       inkscape:export-xdpi="70.794304"
       inkscape:export-ydpi="70.794304" />
    <use
       id="γCru"
       y="118"
       xlink:href="#star2"
       x="0"
       width="100%"
       height="100%"
       transform="matrix(0.5117136,0,0,0.5117136,-713.20771,83.207405)"
       inkscape:export-filename="C:\Users\suitedoalex\sites\brazil-flag-bandeira-4.png"
       inkscape:export-xdpi="70.794304"
       inkscape:export-ydpi="70.794304" />
    <use
       id="δCru"
       y="184"
       x="-74"
       xlink:href="#star3"
       width="100%"
       height="100%"
       transform="matrix(0.5117136,0,0,0.5117136,-713.20771,83.207405)"
       inkscape:export-filename="C:\Users\suitedoalex\sites\brazil-flag-bandeira-4.png"
       inkscape:export-xdpi="70.794304"
       inkscape:export-ydpi="70.794304" />
    <use
       id="εCru"
       y="235"
       x="-37"
       xlink:href="#star4"
       width="100%"
       height="100%"
       transform="matrix(0.5117136,0,0,0.5117136,-713.20771,83.207405)"
       inkscape:export-filename="C:\Users\suitedoalex\sites\brazil-flag-bandeira-4.png"
       inkscape:export-xdpi="70.794304"
       inkscape:export-ydpi="70.794304" />
    <use
       id="αTrA"
       y="495"
       x="220"
       xlink:href="#star2"
       width="100%"
       height="100%"
       transform="matrix(0.5117136,0,0,0.5117136,-713.20771,83.207405)"
       inkscape:export-filename="C:\Users\suitedoalex\sites\brazil-flag-bandeira-4.png"
       inkscape:export-xdpi="70.794304"
       inkscape:export-ydpi="70.794304" />
    <use
       id="βTrA"
       y="430"
       x="283"
       xlink:href="#star3"
       width="100%"
       height="100%"
       transform="matrix(0.5117136,0,0,0.5117136,-713.20771,83.207405)"
       inkscape:export-filename="C:\Users\suitedoalex\sites\brazil-flag-bandeira-4.png"
       inkscape:export-xdpi="70.794304"
       inkscape:export-ydpi="70.794304" />
    <use
       id="γTrA"
       y="412"
       x="162"
       xlink:href="#star3"
       width="100%"
       height="100%"
       transform="matrix(0.5117136,0,0,0.5117136,-713.20771,83.207405)"
       inkscape:export-filename="C:\Users\suitedoalex\sites\brazil-flag-bandeira-4.png"
       inkscape:export-xdpi="70.794304"
       inkscape:export-ydpi="70.794304" />
    <use
       id="αCar"
       y="390"
       x="-295"
       xlink:href="#star1"
       width="100%"
       height="100%"
       transform="matrix(0.5117136,0,0,0.5117136,-713.20771,83.207405)"
       inkscape:export-filename="C:\Users\suitedoalex\sites\brazil-flag-bandeira-4.png"
       inkscape:export-xdpi="70.794304"
       inkscape:export-ydpi="70.794304" />
    <use
       id="σOct"
       y="575"
       xlink:href="#star5"
       x="0"
       width="100%"
       height="100%"
       transform="matrix(0.5117136,0,0,0.5117136,-713.20771,83.207405)"
       inkscape:export-filename="C:\Users\suitedoalex\sites\brazil-flag-bandeira-4.png"
       inkscape:export-xdpi="70.794304"
       inkscape:export-ydpi="70.794304" />
  </g>
</svg>
